<svg xmlns="http://www.w3.org/2000/svg" width="2560" height="1440" viewBox="0 0 2560 1440">
<rect width="2560" height="1440" fill="#f0d9a0"/>
       <filter id="noise"><feTurbulence type="fractalNoise" baseFrequency="0.65" numOctaves="3" stitchTiles="stitch"/><feColorMatrix type="saturate" values="0"/><feBlend in="SourceGraphic" mode="multiply"/></filter>
       <rect width="2560" height="1440" filter="url(#noise)" opacity="0.08"/>
<rect x="20" y="20" width="2520" height="1400" fill="none" stroke="#8b6914" stroke-width="6" rx="16" opacity="0.5"/>
       <rect x="40" y="40" width="2480" height="1360" fill="none" stroke="#5c3d1a" stroke-width="2" rx="12" opacity="0.3"/>
<line x1="100" y1="100" x2="2460" y2="100" stroke="#5c3d1a" stroke-width="4" opacity="0.9"/><line x1="100" y1="237.77777777777777" x2="2460" y2="237.77777777777777" stroke="#5c3d1a" stroke-width="4" opacity="0.9"/><line x1="100" y1="375.55555555555554" x2="2460" y2="375.55555555555554" stroke="#5c3d1a" stroke-width="4" opacity="0.9"/><line x1="100" y1="513.3333333333333" x2="2460" y2="513.3333333333333" stroke="#5c3d1a" stroke-width="4" opacity="0.9"/><line x1="100" y1="651.1111111111111" x2="2460" y2="651.1111111111111" stroke="#5c3d1a" stroke-width="4" opacity="0.9"/><line x1="100" y1="788.8888888888889" x2="2460" y2="788.8888888888889" stroke="#5c3d1a" stroke-width="4" opacity="0.9"/><line x1="100" y1="926.6666666666666" x2="2460" y2="926.6666666666666" stroke="#5c3d1a" stroke-width="4" opacity="0.9"/><line x1="100" y1="1064.4444444444443" x2="2460" y2="1064.4444444444443" stroke="#5c3d1a" stroke-width="4" opacity="0.9"/><line x1="100" y1="1202.2222222222222" x2="2460" y2="1202.2222222222222" stroke="#5c3d1a" stroke-width="4" opacity="0.9"/><line x1="100" y1="1340" x2="2460" y2="1340" stroke="#5c3d1a" stroke-width="4" opacity="0.9"/><line x1="100" y1="100" x2="100" y2="1340" stroke="#5c3d1a" stroke-width="4" opacity="0.9"/><line x1="395" y1="100" x2="395" y2="651.1111111111111" stroke="#5c3d1a" stroke-width="4" opacity="0.9"/><line x1="395" y1="788.8888888888889" x2="395" y2="1340" stroke="#5c3d1a" stroke-width="4" opacity="0.9"/><line x1="690" y1="100" x2="690" y2="651.1111111111111" stroke="#5c3d1a" stroke-width="4" opacity="0.9"/><line x1="690" y1="788.8888888888889" x2="690" y2="1340" stroke="#5c3d1a" stroke-width="4" opacity="0.9"/><line x1="985" y1="100" x2="985" y2="651.1111111111111" stroke="#5c3d1a" stroke-width="4" opacity="0.9"/><line x1="985" y1="788.8888888888889" x2="985" y2="1340" stroke="#5c3d1a" stroke-width="4" opacity="0.9"/><line x1="1280" y1="100" x2="1280" y2="651.1111111111111" stroke="#5c3d1a" stroke-width="4" opacity="0.9"/><line x1="1280" y1="788.8888888888889" x2="1280" y2="1340" stroke="#5c3d1a" stroke-width="4" opacity="0.9"/><line x1="1575" y1="100" x2="1575" y2="651.1111111111111" stroke="#5c3d1a" stroke-width="4" opacity="0.9"/><line x1="1575" y1="788.8888888888889" x2="1575" y2="1340" stroke="#5c3d1a" stroke-width="4" opacity="0.9"/><line x1="1870" y1="100" x2="1870" y2="651.1111111111111" stroke="#5c3d1a" stroke-width="4" opacity="0.9"/><line x1="1870" y1="788.8888888888889" x2="1870" y2="1340" stroke="#5c3d1a" stroke-width="4" opacity="0.9"/><line x1="2165" y1="100" x2="2165" y2="651.1111111111111" stroke="#5c3d1a" stroke-width="4" opacity="0.9"/><line x1="2165" y1="788.8888888888889" x2="2165" y2="1340" stroke="#5c3d1a" stroke-width="4" opacity="0.9"/><line x1="2460" y1="100" x2="2460" y2="1340" stroke="#5c3d1a" stroke-width="4" opacity="0.9"/><text x="690" y="720" text-anchor="middle" dominant-baseline="central" fill="#5c3d1a" font-size="72" font-family="KaiTi, STKaiti, serif" font-weight="bold" letter-spacing="24">楚 河</text><text x="1870" y="720" text-anchor="middle" dominant-baseline="central" fill="#5c3d1a" font-size="72" font-family="KaiTi, STKaiti, serif" font-weight="bold" letter-spacing="24">汉 界</text><line x1="985" y1="100" x2="1575" y2="375.55555555555554" stroke="#5c3d1a" stroke-width="2.5" opacity="0.7"/><line x1="1575" y1="100" x2="985" y2="375.55555555555554" stroke="#5c3d1a" stroke-width="2.5" opacity="0.7"/><line x1="985" y1="1064.4444444444443" x2="1575" y2="1340" stroke="#5c3d1a" stroke-width="2.5" opacity="0.7"/><line x1="1575" y1="1064.4444444444443" x2="985" y2="1340" stroke="#5c3d1a" stroke-width="2.5" opacity="0.7"/>
<polyline points="698,493.33333333333326 698,505.33333333333326 710,505.33333333333326" stroke="#5c3d1a" stroke-width="2" fill="none" opacity="0.7"/><polyline points="682,493.33333333333326 682,505.33333333333326 670,505.33333333333326" stroke="#5c3d1a" stroke-width="2" fill="none" opacity="0.7"/><polyline points="698,533.3333333333333 698,521.3333333333333 710,521.3333333333333" stroke="#5c3d1a" stroke-width="2" fill="none" opacity="0.7"/><polyline points="682,533.3333333333333 682,521.3333333333333 670,521.3333333333333" stroke="#5c3d1a" stroke-width="2" fill="none" opacity="0.7"/><polyline points="1878,493.33333333333326 1878,505.33333333333326 1890,505.33333333333326" stroke="#5c3d1a" stroke-width="2" fill="none" opacity="0.7"/><polyline points="1862,493.33333333333326 1862,505.33333333333326 1850,505.33333333333326" stroke="#5c3d1a" stroke-width="2" fill="none" opacity="0.7"/><polyline points="1878,533.3333333333333 1878,521.3333333333333 1890,521.3333333333333" stroke="#5c3d1a" stroke-width="2" fill="none" opacity="0.7"/><polyline points="1862,533.3333333333333 1862,521.3333333333333 1850,521.3333333333333" stroke="#5c3d1a" stroke-width="2" fill="none" opacity="0.7"/><polyline points="698,906.6666666666666 698,918.6666666666666 710,918.6666666666666" stroke="#5c3d1a" stroke-width="2" fill="none" opacity="0.7"/><polyline points="682,906.6666666666666 682,918.6666666666666 670,918.6666666666666" stroke="#5c3d1a" stroke-width="2" fill="none" opacity="0.7"/><polyline points="698,946.6666666666666 698,934.6666666666666 710,934.6666666666666" stroke="#5c3d1a" stroke-width="2" fill="none" opacity="0.7"/><polyline points="682,946.6666666666666 682,934.6666666666666 670,934.6666666666666" stroke="#5c3d1a" stroke-width="2" fill="none" opacity="0.7"/><polyline points="1878,906.6666666666666 1878,918.6666666666666 1890,918.6666666666666" stroke="#5c3d1a" stroke-width="2" fill="none" opacity="0.7"/><polyline points="1862,906.6666666666666 1862,918.6666666666666 1850,918.6666666666666" stroke="#5c3d1a" stroke-width="2" fill="none" opacity="0.7"/><polyline points="1878,946.6666666666666 1878,934.6666666666666 1890,934.6666666666666" stroke="#5c3d1a" stroke-width="2" fill="none" opacity="0.7"/><polyline points="1862,946.6666666666666 1862,934.6666666666666 1850,934.6666666666666" stroke="#5c3d1a" stroke-width="2" fill="none" opacity="0.7"/><polyline points="108,493.33333333333326 108,505.33333333333326 120,505.33333333333326" stroke="#5c3d1a" stroke-width="2" fill="none" opacity="0.7"/><polyline points="92,493.33333333333326 92,505.33333333333326 80,505.33333333333326" stroke="#5c3d1a" stroke-width="2" fill="none" opacity="0.7"/><polyline points="108,533.3333333333333 108,521.3333333333333 120,521.3333333333333" stroke="#5c3d1a" stroke-width="2" fill="none" opacity="0.7"/><polyline points="92,533.3333333333333 92,521.3333333333333 80,521.3333333333333" stroke="#5c3d1a" stroke-width="2" fill="none" opacity="0.7"/><polyline points="2468,493.33333333333326 2468,505.33333333333326 2480,505.33333333333326" stroke="#5c3d1a" stroke-width="2" fill="none" opacity="0.7"/><polyline points="2452,493.33333333333326 2452,505.33333333333326 2440,505.33333333333326" stroke="#5c3d1a" stroke-width="2" fill="none" opacity="0.7"/><polyline points="2468,533.3333333333333 2468,521.3333333333333 2480,521.3333333333333" stroke="#5c3d1a" stroke-width="2" fill="none" opacity="0.7"/><polyline points="2452,533.3333333333333 2452,521.3333333333333 2440,521.3333333333333" stroke="#5c3d1a" stroke-width="2" fill="none" opacity="0.7"/><polyline points="108,906.6666666666666 108,918.6666666666666 120,918.6666666666666" stroke="#5c3d1a" stroke-width="2" fill="none" opacity="0.7"/><polyline points="92,906.6666666666666 92,918.6666666666666 80,918.6666666666666" stroke="#5c3d1a" stroke-width="2" fill="none" opacity="0.7"/><polyline points="108,946.6666666666666 108,934.6666666666666 120,934.6666666666666" stroke="#5c3d1a" stroke-width="2" fill="none" opacity="0.7"/><polyline points="92,946.6666666666666 92,934.6666666666666 80,934.6666666666666" stroke="#5c3d1a" stroke-width="2" fill="none" opacity="0.7"/><polyline points="2468,906.6666666666666 2468,918.6666666666666 2480,918.6666666666666" stroke="#5c3d1a" stroke-width="2" fill="none" opacity="0.7"/><polyline points="2452,906.6666666666666 2452,918.6666666666666 2440,918.6666666666666" stroke="#5c3d1a" stroke-width="2" fill="none" opacity="0.7"/><polyline points="2468,946.6666666666666 2468,934.6666666666666 2480,934.6666666666666" stroke="#5c3d1a" stroke-width="2" fill="none" opacity="0.7"/><polyline points="2452,946.6666666666666 2452,934.6666666666666 2440,934.6666666666666" stroke="#5c3d1a" stroke-width="2" fill="none" opacity="0.7"/>
</svg>